<svg width="592" height="496" viewBox="0 0 592 496" fill="none" xmlns="http://www.w3.org/2000/svg" xmlns:xlink="http://www.w3.org/1999/xlink">
<path fill-rule="evenodd" clip-rule="evenodd" d="M329.427 9.09617C409.823 17.8485 485.748 45.9725 535.742 104.901C585.258 163.266 602.28 238.721 585.859 311.357C569.033 385.779 525.444 459.059 449.248 487.476C377.105 514.382 304.164 471.511 232.716 443.061C154.667 411.982 63.3221 392.753 29.8509 320.472C-10.3054 233.754 -16.066 122.668 51.7239 52.2078C117.396 -16.0512 231.353 -1.58079 329.427 9.09617Z" fill="#C4C4C4"/>
<path fill-rule="evenodd" clip-rule="evenodd" d="M329.427 9.09617C409.823 17.8485 485.748 45.9725 535.742 104.901C585.258 163.266 602.28 238.721 585.859 311.357C569.033 385.779 525.444 459.059 449.248 487.476C377.105 514.382 304.164 471.511 232.716 443.061C154.667 411.982 63.3221 392.753 29.8509 320.472C-10.3054 233.754 -16.066 122.668 51.7239 52.2078C117.396 -16.0512 231.353 -1.58079 329.427 9.09617Z" fill="url(#pattern0_3_2444)"/>
<defs>
<pattern id="pattern0_3_2444" patternContentUnits="objectBoundingBox" width="1" height="1">
</pattern>
</defs>
</svg>
